<?xml version="1.0" standalone="no"?>
<!DOCTYPE svg PUBLIC "-//W3C//DTD SVG 20010904//EN"
 "http://www.w3.org/TR/2001/REC-SVG-20010904/DTD/svg10.dtd">
<svg version="1.0" xmlns="http://www.w3.org/2000/svg"
 width="1280.000000pt" height="939.000000pt" viewBox="0 0 1280.000000 939.000000"
 preserveAspectRatio="xMidYMid meet">
<g transform="translate(0.000000,939.000000) scale(0.100000,-0.100000)"
fill="#000000" stroke="none">
<path d="M8580 8811 l45 -39 -34 -36 -35 -36 30 0 c16 0 47 5 69 11 22 6 60
14 84 18 24 3 46 11 48 18 8 24 -96 70 -222 97 -29 7 -29 6 15 -33z"/>
<path d="M11670 8836 c0 -2 16 -14 35 -26 42 -26 44 -45 8 -82 -14 -15 -24
-30 -22 -32 3 -3 32 1 64 9 33 7 79 15 103 18 23 2 45 7 48 10 12 12 -5 36
-37 53 -57 29 -199 65 -199 50z"/>
<path d="M2195 8439 c-114 -13 -501 -67 -560 -79 -70 -14 -258 -107 -365 -180
-199 -137 -349 -326 -434 -545 -69 -181 -95 -322 -103 -555 l-5 -175 -38 -65
c-68 -117 -92 -172 -135 -310 -71 -225 -80 -279 -80 -500 0 -205 4 -235 55
-420 16 -58 41 -154 56 -215 89 -370 308 -700 632 -948 34 -27 62 -54 62 -60
0 -7 -14 -21 -30 -31 -145 -85 -394 -309 -535 -481 -495 -604 -784 -1492 -692
-2130 58 -411 197 -697 457 -949 326 -315 837 -523 1465 -598 171 -20 619 -17
785 5 440 60 798 180 1089 367 l79 50 378 -136 379 -136 235 -151 c211 -135
244 -153 320 -174 107 -28 145 -28 247 1 131 37 228 107 274 198 10 20 121
320 245 665 124 345 281 784 350 974 69 191 128 370 133 398 19 120 -29 242
-140 355 -44 44 -81 94 -99 132 -34 70 -100 136 -168 167 -39 18 -66 22 -157
22 l-110 0 -160 84 c-88 46 -165 89 -171 97 -6 7 -17 108 -24 224 l-13 211
-56 27 c-44 21 -55 31 -53 47 12 70 356 1184 476 1540 79 237 250 745 379
1130 283 841 255 762 276 768 12 3 33 48 69 148 29 79 52 148 52 152 0 9 -104
57 -124 57 -21 0 -116 -274 -116 -334 0 -58 -69 -268 -242 -736 -441 -1192
-1015 -2596 -1077 -2634 -5 -3 -33 3 -64 13 l-55 19 -39 -41 c-22 -23 -86 -95
-142 -160 -57 -64 -107 -119 -111 -122 -13 -8 -333 64 -342 77 -4 7 -6 20 -4
28 3 8 10 97 17 197 13 203 14 202 -50 229 -43 18 -141 28 -159 16 -7 -5 -25
-42 -41 -82 -15 -41 -33 -76 -38 -77 -6 -2 -51 45 -100 104 -139 167 -297 311
-460 422 -35 23 -63 48 -63 55 0 7 35 40 78 73 328 255 561 631 631 1018 60
329 64 365 69 528 2 92 7 167 11 167 4 0 32 -9 64 -20 70 -25 163 -26 196 -4
54 38 66 145 28 254 -41 115 -103 196 -200 262 -110 75 -432 322 -452 348 -11
13 -48 57 -83 97 -58 67 -68 87 -146 280 -46 114 -120 291 -164 393 l-81 185
-134 131 c-240 233 -364 306 -570 334 -91 12 -287 11 -402 -1z m1863 -2240 c2
-36 -9 -26 -23 20 -5 17 -4 22 6 19 8 -3 15 -20 17 -39z"/>
<path d="M8086 8334 c-9 -8 -16 -20 -16 -25 0 -5 -16 -9 -36 -9 -20 0 -48 -7
-63 -16 -53 -32 -56 -43 -59 -273 -2 -118 -1 -233 3 -257 6 -39 9 -43 63 -67
110 -49 229 -42 300 18 17 14 34 25 38 25 5 0 160 -60 344 -133 l335 -133 -3
-35 c-1 -19 -5 -110 -8 -203 -7 -194 2 -257 49 -352 20 -41 28 -67 22 -73 -15
-14 -342 -137 -401 -151 -47 -10 -56 -9 -110 13 -85 36 -154 55 -244 67 -70
10 -85 9 -116 -6 -36 -17 -36 -17 -58 11 -17 21 -27 26 -44 21 -12 -4 -22 -14
-22 -22 0 -8 -6 -15 -12 -15 -7 -1 -17 -2 -23 -4 -5 -1 -21 -3 -33 -3 -13 -1
-39 -17 -58 -36 l-34 -34 0 -256 0 -256 53 -26 c97 -50 259 -42 310 14 12 13
17 43 19 112 l3 95 155 62 c208 84 302 113 359 113 39 0 50 4 53 18 6 21 105
75 121 65 5 -3 7 -28 5 -57 -6 -60 -2 -76 19 -76 12 0 14 13 12 78 -3 63 -1
77 11 77 11 0 16 -15 18 -63 2 -44 7 -62 15 -59 8 2 12 29 12 76 l0 73 62 25
62 25 73 -45 c96 -60 210 -105 328 -129 79 -17 122 -19 255 -15 185 5 271 24
404 87 l84 41 226 -120 c124 -66 296 -157 381 -203 l155 -83 3 -110 c3 -125 6
-131 85 -166 68 -30 185 -33 237 -5 73 39 70 27 70 259 0 130 -4 224 -12 248
-6 22 -9 41 -7 44 3 2 30 -5 60 -16 88 -34 237 -77 343 -99 102 -21 191 -26
182 -11 -11 17 -316 160 -398 186 -93 30 -260 46 -272 26 -12 -19 -42 -12 -54
14 -16 35 -51 31 -65 -7 -5 -13 -17 -18 -48 -18 -33 0 -47 -6 -75 -34 -19 -19
-34 -44 -34 -57 0 -36 -11 -69 -23 -69 -13 0 -576 299 -599 318 -15 13 -13 19
27 78 76 111 93 208 77 450 -8 121 -13 147 -35 193 -15 29 -27 58 -27 65 0 7
111 66 247 130 l246 117 21 -25 c59 -72 236 -96 326 -46 l45 25 3 219 c1 123
-2 234 -8 254 -5 20 -8 38 -5 40 2 2 67 -16 144 -41 150 -50 314 -87 381 -87
38 0 41 2 29 16 -19 23 -274 146 -354 171 -140 44 -249 54 -289 28 -22 -14
-25 -14 -40 0 -9 9 -16 21 -16 26 0 18 -49 9 -60 -11 -7 -13 -21 -20 -41 -20
-16 0 -43 -7 -59 -15 -51 -26 -60 -59 -60 -207 0 -73 -4 -138 -8 -144 -9 -14
-616 -304 -636 -304 -9 0 -44 15 -78 34 -243 134 -632 165 -926 75 -82 -26
-193 -80 -243 -120 -20 -16 -43 -29 -51 -29 -22 0 -792 311 -801 323 -4 7 -7
59 -6 117 1 58 -2 127 -6 154 -7 46 -6 49 11 41 172 -77 595 -170 556 -122
-26 30 -329 167 -426 192 -100 25 -220 33 -231 15 -10 -16 -45 -11 -52 8 -13
33 -34 40 -57 16z m270 -1726 c46 -17 81 -35 77 -41 -8 -14 -132 -69 -142 -63
-5 3 -11 25 -14 48 -3 24 -9 53 -13 66 -3 12 -3 22 1 22 5 0 45 -14 91 -32z"/>
<path d="M8996 8165 c-5 -76 -4 -110 4 -121 7 -7 16 -11 21 -8 11 6 1 215 -11
227 -4 5 -10 -40 -14 -98z"/>
<path d="M12120 8151 c0 -99 8 -136 27 -118 9 9 -8 227 -18 227 -5 0 -9 -49
-9 -109z"/>
<path d="M9058 8225 c-3 -6 -4 -39 -2 -75 2 -36 4 -68 4 -72 0 -5 5 -8 10 -8
11 0 12 87 1 135 -3 17 -9 25 -13 20z"/>
<path d="M12180 8146 c0 -58 3 -77 13 -73 8 2 11 23 9 68 -5 94 -22 98 -22 5z"/>
<path d="M9132 8150 c0 -19 2 -27 5 -17 2 9 2 25 0 35 -3 9 -5 1 -5 -18z"/>
<path d="M8563 7230 c20 -17 37 -37 37 -43 0 -6 -12 -23 -27 -39 -14 -15 -23
-31 -20 -35 4 -3 40 1 80 10 39 10 84 17 99 17 39 0 45 20 15 46 -24 21 -105
49 -192 69 l-30 6 38 -31z"/>
<path d="M11785 7067 l40 -36 -34 -32 c-42 -41 -30 -46 57 -25 37 8 80 17 96
18 90 9 -19 78 -162 104 l-37 7 40 -36z"/>
<path d="M9112 6560 c0 -14 2 -19 5 -12 2 6 2 18 0 25 -3 6 -5 1 -5 -13z"/>
<path d="M12187 6423 c-6 -105 1 -141 25 -127 11 7 0 214 -12 227 -4 4 -10
-40 -13 -100z"/>
<path d="M12250 6412 c0 -63 3 -83 13 -79 8 2 11 23 9 68 -6 100 -21 107 -22
11z"/>
<path d="M12322 6410 c0 -19 2 -27 5 -17 2 9 2 25 0 35 -3 9 -5 1 -5 -18z"/>
</g>
</svg>
